<?xml version="1.0" encoding="UTF-8"?>
<svg version="1.1" xmlns="http://www.w3.org/2000/svg" width="700" height="700">
<path d="M0 0 C231 0 462 0 700 0 C700 231 700 462 700 700 C469 700 238 700 0 700 C0 469 0 238 0 0 Z " fill="#E94A70" transform="translate(0,0)"/>
<path d="M0 0 C5.46723987 4.70264843 9.66569689 9.6580472 13.22265625 15.921875 C13.61195313 16.6025 14.00125 17.283125 14.40234375 17.984375 C20.74014677 29.82727699 21.05795859 43.50793672 17.22265625 56.234375 C12.8255637 69.54310152 3.56433845 79.7971312 -8.77734375 86.296875 C-20.14296497 91.55133305 -34.25805188 93.19783522 -46.515625 89.7890625 C-61.73573214 83.95337375 -71.77327849 74.51439891 -78.53515625 59.890625 C-79.77734375 56.921875 -79.77734375 56.921875 -80.77734375 53.921875 C-90.41792702 53.85220574 -100.05842292 53.79897805 -109.69920349 53.76643848 C-114.17635016 53.75081704 -118.65332392 53.72964349 -123.13037109 53.69555664 C-127.45515633 53.66283706 -131.77977578 53.64499552 -136.10467529 53.63724327 C-137.75041308 53.6317223 -139.39614233 53.62094133 -141.04180908 53.60468483 C-143.35619346 53.58274244 -145.66990248 53.57991498 -147.984375 53.58129883 C-149.29897705 53.57463699 -150.6135791 53.56797516 -151.96801758 53.56111145 C-158.08910411 54.14081106 -163.4554671 56.06055752 -168.08984375 60.234375 C-169.04310547 61.06388672 -169.04310547 61.06388672 -170.015625 61.91015625 C-174.71892185 67.28088325 -175.58742246 73.30742747 -176.71484375 80.109375 C-179.08826743 93.23075998 -182.42779361 102.34349217 -190.77734375 112.921875 C-191.78057269 114.25278051 -192.78181528 115.5851997 -193.77734375 116.921875 C-193.26945312 117.43234375 -192.7615625 117.9428125 -192.23828125 118.46875 C-182.08266428 129.19490725 -178.7256953 140.45352926 -176.296875 154.75 C-174.81040668 163.03356707 -172.41040439 169.01608747 -165.94921875 174.59765625 C-158.45120898 179.16928451 -151.36834236 179.4371614 -142.77734375 179.609375 C-141.62105469 179.64353516 -140.46476562 179.67769531 -139.2734375 179.71289062 C-136.44150329 179.79480608 -133.60985674 179.86414022 -130.77734375 179.921875 C-130.65359375 179.02984375 -130.52984375 178.1378125 -130.40234375 177.21875 C-128.23031994 165.7613244 -119.97890637 156.7862152 -110.83984375 150.046875 C-99.05723465 142.25307429 -85.5261064 139.82875073 -71.63134766 142.30419922 C-62.98536436 144.39418456 -55.56542902 148.1929236 -48.77734375 153.921875 C-48.0709375 154.49421875 -47.36453125 155.0665625 -46.63671875 155.65625 C-38.21211398 163.18051533 -32.7074468 174.81731573 -31.56005859 186.04882812 C-30.72427199 201.33374863 -33.72687375 214.38801706 -43.8125 226.33203125 C-53.7690345 236.85048657 -65.9436683 242.8276551 -80.49975586 243.39477539 C-95.58593425 243.56948231 -107.62362569 238.4991348 -118.96484375 228.484375 C-124.2201082 222.97885987 -130.77734375 212.64516972 -130.77734375 204.921875 C-131.58776123 204.94282227 -132.39817871 204.96376953 -133.2331543 204.98535156 C-136.30651453 205.05446007 -139.37947262 205.10411959 -142.45336914 205.14160156 C-144.41124151 205.17106827 -146.36875474 205.22195258 -148.32617188 205.2734375 C-163.53593045 205.4282442 -176.27511413 201.09894111 -187.52734375 190.671875 C-197.21812279 180.21419978 -200.892072 168.34860408 -203.27734375 154.609375 C-204.76844025 146.14022598 -206.67257022 139.63074151 -213.72973633 134.26831055 C-221.0163571 129.47688172 -228.89209523 129.53578417 -237.33984375 129.734375 C-238.44392578 129.74791016 -239.54800781 129.76144531 -240.68554688 129.77539062 C-243.38333647 129.81042685 -246.08007011 129.85954909 -248.77734375 129.921875 C-249.17824219 130.81648437 -249.57914063 131.71109375 -249.9921875 132.6328125 C-257.125551 148.02260122 -266.59035893 156.94614706 -282.453125 163.16015625 C-294.22150188 167.01701926 -307.5518028 165.82581621 -318.77734375 160.921875 C-329.80506608 155.19036142 -338.41895244 147.23593054 -343.77734375 135.921875 C-344.76734375 132.456875 -344.76734375 132.456875 -345.77734375 128.921875 C-355.67734375 129.251875 -365.57734375 129.581875 -375.77734375 129.921875 C-377.09734375 133.221875 -378.41734375 136.521875 -379.77734375 139.921875 C-386.86968338 151.69067214 -398.40151405 160.42980699 -411.6328125 164.0625 C-422.78545344 166.66315141 -434.37314529 165.61456985 -444.77734375 160.921875 C-445.56367188 160.57125 -446.35 160.220625 -447.16015625 159.859375 C-460.58496053 153.1235847 -468.16724401 142.3144384 -473.015625 128.46484375 C-476.94565418 115.34459248 -475.62041791 102.0317588 -469.234375 90.01953125 C-461.8515318 77.70352967 -450.91708329 68.01554783 -436.7265625 64.359375 C-421.97280115 62.17073756 -407.81199616 63.90271655 -395.11328125 72.18359375 C-386.27158159 78.76311941 -380.25299587 86.89732765 -375.77734375 96.921875 C-375.28234375 100.386875 -375.28234375 100.386875 -374.77734375 103.921875 C-365.53734375 103.921875 -356.29734375 103.921875 -346.77734375 103.921875 C-346.44734375 101.611875 -346.11734375 99.301875 -345.77734375 96.921875 C-340.22685541 82.88856486 -330.52517423 73.55113688 -317.0390625 67.26171875 C-310.80272029 64.69996381 -305.84896059 63.56046354 -299.15234375 63.609375 C-297.96137085 63.61674683 -297.96137085 63.61674683 -296.74633789 63.62426758 C-281.02488457 63.93477942 -269.61527362 69.6712425 -258.77734375 80.921875 C-253.56882393 87.07468754 -247.77734375 95.52322103 -247.77734375 103.921875 C-228.60027618 104.53544816 -228.60027618 104.53544816 -211.68359375 97.16015625 C-205.34249155 90.54617875 -203.57795127 83.01669416 -202.40234375 74.171875 C-200.5927401 62.29116857 -196.8191018 52.97980291 -188.77734375 43.921875 C-188.27847656 43.30699219 -187.77960938 42.69210938 -187.265625 42.05859375 C-180.44799735 34.31363136 -168.20477245 28.3933138 -157.98074341 27.6434021 C-156.54083612 27.62009896 -155.10073417 27.60725499 -153.66064453 27.60302734 C-152.86972916 27.59298172 -152.07881378 27.5829361 -151.26393127 27.57258606 C-148.66684654 27.54185795 -146.06986442 27.52474798 -143.47265625 27.5078125 C-141.66518274 27.48909249 -139.85771788 27.46951846 -138.05026245 27.4491272 C-133.30583818 27.39788797 -128.56138559 27.35821837 -123.8168335 27.32098389 C-118.97026616 27.2808927 -114.12381574 27.22982372 -109.27734375 27.1796875 C-99.77742599 27.08302544 -90.27744207 26.99858962 -80.77734375 26.921875 C-80.51977295 26.25293213 -80.26220215 25.58398926 -79.99682617 24.89477539 C-79.4763269 23.56434204 -79.4763269 23.56434204 -78.9453125 22.20703125 C-78.6052417 21.33183838 -78.2651709 20.45664551 -77.91479492 19.55493164 C-71.60263316 4.94306975 -59.98323346 -3.15396674 -45.77734375 -9.078125 C-30.31743081 -13.50572665 -12.61794216 -9.44127317 0 0 Z " fill="#FEFCFD" transform="translate(577.77734375,154.078125)"/>
<path d="M0 0 C0.84626953 -0.00773437 1.69253906 -0.01546875 2.56445312 -0.0234375 C13.17562777 0.00928779 22.6745078 3.12900451 31.25 9.5 C37.070838 15.45620633 41.20044528 23.54460143 41.3125 31.9375 C41.14868867 40.81607427 38.20375589 47.98374411 31.9375 54.25 C26.56907895 58.25 26.56907895 58.25 23.9375 58.25 C23.9375 58.91 23.9375 59.57 23.9375 60.25 C25.175 60.5284375 25.175 60.5284375 26.4375 60.8125 C34.8544461 64.26946001 40.16566684 71.13207534 43.9375 79.25 C46.65222433 89.56595244 45.18533795 100.00415778 40.3125 109.375 C31.98647624 119.45387087 22.70458676 124.16111163 9.9375 126.25 C6.30753303 126.53811419 2.7027543 126.58456406 -0.9375 126.5625 C-1.90985596 126.55686035 -2.88221191 126.5512207 -3.8840332 126.54541016 C-10.66234445 126.4304946 -16.77699772 125.97923125 -23.0625 123.25 C-23.990625 122.8478125 -24.91875 122.445625 -25.875 122.03125 C-34.81926508 117.65633773 -41.02856879 111.8572121 -44.5625 102.4375 C-47.41564768 92.41327131 -47.08122208 83.46393869 -42.0625 74.25 C-38.14046555 67.81876771 -33.38057395 62.68935798 -26.0625 60.25 C-26.0625 59.59 -26.0625 58.93 -26.0625 58.25 C-26.908125 57.71375 -27.75375 57.1775 -28.625 56.625 C-33.85755699 53.28163223 -37.90671385 48.76257858 -40.5 43.125 C-42.14567233 31.78814618 -41.78394948 22.87454361 -35.0625 13.25 C-25.74361844 2.64641666 -13.60178474 -0.12488249 0 0 Z " fill="#15122F" transform="translate(350.0625,429.75)"/>
<path d="M0 0 C8.03259253 6.16304852 12.8806983 14.26662952 14.54368591 24.27064514 C14.97377407 27.78566124 15.120532 31.13133831 15.11352539 34.66967773 C15.11341209 36.59087685 15.11341209 36.59087685 15.11329651 38.55088806 C15.10819145 39.92845703 15.10297548 41.30602559 15.09765625 42.68359375 C15.0957886 44.1084844 15.09436634 45.53337569 15.09336853 46.95826721 C15.08957066 50.6884034 15.07976402 54.41849996 15.06866455 58.14862061 C15.05839141 61.96300725 15.05385832 65.77740036 15.04882812 69.59179688 C15.03813901 77.06121798 15.02056466 84.53059836 15 92 C6.75 92 -1.5 92 -10 92 C-10.0093457 90.19402344 -10.01869141 88.38804687 -10.02832031 86.52734375 C-10.06395367 80.5360939 -10.11781831 74.54523608 -10.18390274 68.55426025 C-10.22328102 64.9246652 -10.25551619 61.29530923 -10.27099609 57.66552734 C-10.28622717 54.15740773 -10.32078433 50.64994583 -10.36830902 47.14212036 C-10.39019599 45.16377797 -10.39246818 43.18524967 -10.39434814 41.20678711 C-10.51048795 34.01727074 -11.05510313 29.08194336 -15 23 C-20.91137605 17.38419275 -25.72049535 16.49132933 -33.73046875 16.6171875 C-39.77386257 17.32477722 -43.24075342 20.19445746 -47.375 24.4375 C-50.3563185 29.13880994 -51.24786712 33.58434617 -51.31884766 39.09716797 C-51.33871735 40.27793915 -51.35858704 41.45871033 -51.37905884 42.67526245 C-51.39638565 44.56464035 -51.39638565 44.56464035 -51.4140625 46.4921875 C-51.43342865 47.79326447 -51.4527948 49.09434143 -51.4727478 50.43484497 C-51.52387939 53.87720764 -51.56360588 57.31960922 -51.60089111 60.762146 C-51.64105048 64.28163121 -51.6920881 67.80095723 -51.7421875 71.3203125 C-51.83872176 78.2134315 -51.92219118 85.10664445 -52 92 C-60.25 92 -68.5 92 -77 92 C-77 60.32 -77 28.64 -77 -4 C-69.41 -4 -61.82 -4 -54 -4 C-53.34 -0.7 -52.68 2.6 -52 6 C-48.88861477 4.44430738 -46.91281862 3.20490088 -44.3125 1.0625 C-31.89095312 -8.1914393 -13.16537211 -7.66591288 0 0 Z " fill="#15112E" transform="translate(265,462)"/>
<path d="M0 0 C0.87881836 0.01208496 1.75763672 0.02416992 2.66308594 0.03662109 C14.05138889 0.38550152 22.48222186 4.60970641 30.3125 12.875 C37.56036181 23.74679271 38.3537214 33.94893207 38.2578125 46.71875 C38.25407633 48.18705044 38.25123222 49.65535339 38.24923706 51.12365723 C38.24164807 54.96397949 38.22204103 58.80414737 38.1998291 62.64440918 C38.17926793 66.57281405 38.17021351 70.50124418 38.16015625 74.4296875 C38.13879 82.11986977 38.10364726 89.80989347 38.0625 97.5 C29.8125 97.5 21.5625 97.5 13.0625 97.5 C13.0531543 95.72955322 13.04380859 93.95910645 13.03417969 92.13500977 C12.99851768 86.25555129 12.94463468 80.37640784 12.87859726 74.49722385 C12.8392524 70.93603864 12.80700109 67.37509587 12.79150391 63.8137207 C12.77332509 59.71005435 12.72331789 55.60729148 12.671875 51.50390625 C12.67064636 50.23793106 12.66941772 48.97195587 12.66815186 47.6676178 C12.53080026 39.30498918 11.7438698 32.1813698 5.625 26.0625 C-0.73325203 22.18551705 -6.59484806 21.56669275 -13.9375 22.5 C-19.91912115 24.83853363 -24.25877113 28.96675009 -27.01913452 34.77653503 C-28.05526952 37.84925219 -28.21542324 40.33558982 -28.25634766 43.57543945 C-28.27621735 44.77630692 -28.29608704 45.97717438 -28.31655884 47.21443176 C-28.32811005 48.50105209 -28.33966125 49.78767242 -28.3515625 51.11328125 C-28.37028598 52.45136189 -28.38986027 53.78943087 -28.4102478 55.12748718 C-28.4614507 58.63726916 -28.50113936 62.14708938 -28.53839111 65.65704346 C-28.57850539 69.24346278 -28.62956374 72.8297247 -28.6796875 76.41601562 C-28.77630636 83.44390101 -28.85974339 90.47187692 -28.9375 97.5 C-37.1875 97.5 -45.4375 97.5 -53.9375 97.5 C-53.9375 65.82 -53.9375 34.14 -53.9375 1.5 C-46.6775 1.5 -39.4175 1.5 -31.9375 1.5 C-30.09913081 5.17673838 -29.00098187 8.54992447 -27.9375 12.5 C-27.11958984 11.70335937 -27.11958984 11.70335937 -26.28515625 10.890625 C-25.53105469 10.18421875 -24.77695312 9.4778125 -24 8.75 C-23.26910156 8.05390625 -22.53820312 7.3578125 -21.78515625 6.640625 C-14.92008183 1.48004779 -8.50479792 -0.1878701 0 0 Z " fill="#13112E" transform="translate(473.9375,456.5)"/>
<path d="M0 0 C5.61840278 4.00869403 9.1979514 9.35362076 11 16 C12.24491114 24.02145572 10.65342308 30.37000159 6 37 C0.32458458 43.55140345 -5.96752058 46.46080578 -14.5 47.375 C-23.03948935 46.46005471 -29.28239053 43.51962709 -35 37 C-39.18903114 30.51063385 -41.03484408 23.70116527 -40 16 C-37.09797331 7.10406771 -31.58173801 1.58243415 -23.5625 -2.9375 C-15.1308459 -5.45220385 -7.79510307 -3.98599824 0 0 Z " fill="#E64A70" transform="translate(168,247)"/>
<path d="M0 0 C5.29102413 3.74330959 9.36931233 8.38293957 11.296875 14.625 C12.06874813 22.63991518 12.61969854 31.07267919 7.296875 37.625 C1.32339842 44.27268387 -5.23117066 47.5132593 -14.140625 48.125 C-21.56738596 47.81393148 -27.68148405 44.11631252 -32.640625 38.75 C-37.66123834 32.37950477 -39.35791173 26.76567526 -39.10546875 18.6875 C-38.14383586 11.36788655 -34.93059433 6.2660644 -29.265625 1.625 C-20.04068809 -4.81276385 -9.90775965 -5.55339394 0 0 Z " fill="#E64B70" transform="translate(293.703125,246.375)"/>
<path d="M0 0 C6.06660146 4.21975784 9.19590434 9.9215776 11 17 C12.26310729 24.66205646 10.38277245 30.65987286 6 37 C0.33253785 43.55454318 -5.97270834 46.46136161 -14.5 47.375 C-23.034024 46.46064029 -29.29077968 43.52297797 -35 37 C-39.42819348 30.02495536 -41.16923115 23.13846356 -39.609375 14.94921875 C-37.46655015 8.09492643 -32.70357165 2.18927452 -26.53515625 -1.45703125 C-17.04508983 -5.59522662 -9.12500121 -4.58973941 0 0 Z " fill="#E64A6F" transform="translate(510,325)"/>
<path d="M0 0 C5.61072461 3.76037926 10.3478955 8.3099966 12 15 C12.86137683 22.25369965 13.50645618 29.67745166 9.5 36.125 C4.5394372 42.22941022 -1.14630895 46.59755517 -9 48 C-16.87311531 48.77440478 -23.59665582 46.72267534 -29.8125 41.75 C-35.95364668 34.02970132 -38.78771238 27.97273599 -38 18 C-36.5174593 10.50568878 -31.87529405 4.64544867 -25.63671875 0.38671875 C-17.04410186 -4.35726103 -8.80357585 -4.40178793 0 0 Z " fill="#E54B70" transform="translate(559,172)"/>
<path d="M0 0 C3.50530886 2.76201445 5.23744634 6.12640151 6.62109375 10.27734375 C7.29195471 16.48493063 7.83172332 22.49865958 4.18359375 27.83984375 C-0.37002646 32.89585868 -6.06391211 35.37456589 -12.81640625 35.83984375 C-18.74878398 35.53802102 -24.74186072 33.05318115 -28.86328125 28.71484375 C-32.69333696 23.16403837 -32.90441475 17.78175088 -32.37890625 11.27734375 C-30.68596685 5.30226352 -27.54435078 1.58767164 -22.37890625 -1.72265625 C-15.25833678 -4.18574632 -6.50859985 -3.80232133 0 0 Z " fill="#E34A6F" transform="translate(362.37890625,502.72265625)"/>
<path d="M0 0 C3.8300588 2.2170001 5.90497466 4.21577421 7.6875 8.375 C8.45750968 14.81829942 8.62570904 20.94298753 4.6875 26.375 C-0.44887531 31.24797145 -4.97494606 31.73705946 -11.84375 31.65625 C-16.77744723 31.09418323 -19.46574851 28.33617737 -22.625 24.75 C-26.10032242 19.85880548 -25.91055518 15.24756961 -25.3125 9.375 C-23.12723658 4.92353749 -20.3730479 2.18614855 -16.3125 -0.625 C-10.76364437 -2.47461854 -5.3709676 -2.42397602 0 0 Z " fill="#E5496E" transform="translate(358.3125,448.625)"/>
<path d="M0 0 C3.81235104 -0.08809201 7.62443553 -0.1407549 11.4375 -0.1875 C13.04141602 -0.22520508 13.04141602 -0.22520508 14.67773438 -0.26367188 C23.02497753 -0.34025209 30.86018873 0.3707483 37.3125 6.1875 C37.92738281 6.71730469 38.54226563 7.24710937 39.17578125 7.79296875 C44.17790297 13.84478625 45.84538477 20.59350626 47.1875 28.1875 C47.35185547 29.06341797 47.51621094 29.93933594 47.68554688 30.84179688 C47.99784027 32.50946888 48.30285005 34.17852822 48.59912109 35.84912109 C48.92061198 37.5740509 49.31743706 39.28486428 49.73828125 40.98828125 C49.86783203 41.98408203 49.86783203 41.98408203 50 43 C49.01 43.99 49.01 43.99 48 45 C45.80421224 36.67643243 43.69396159 28.60512376 43 20 C42.68377223 17.99722415 42.35820185 15.99569601 42 14 C41.34 14 40.68 14 40 14 C37 10.53846154 37 10.53846154 37 8 C33.42979269 6.31406877 31.75593417 5.96388023 28 7 C27.01 6.01 27.01 6.01 26 5 C26 4.01 26 3.02 26 2 C22.37407004 2.08060591 18.74985598 2.19346817 15.125 2.3125 C14.09246094 2.33505859 13.05992187 2.35761719 11.99609375 2.38085938 C10.51689453 2.4340332 10.51689453 2.4340332 9.0078125 2.48828125 C8.09660645 2.51446533 7.18540039 2.54064941 6.24658203 2.56762695 C5.50520996 2.71031006 4.76383789 2.85299316 4 3 C3.34 3.99 2.68 4.98 2 6 C1.34 6 0.68 6 0 6 C0.2165625 7.299375 0.2165625 7.299375 0.4375 8.625 C-0.06412767 12.49469918 -0.56479446 12.86975827 -3.4375 15.25 C-4.07558594 15.72953125 -4.71367187 16.2090625 -5.37109375 16.703125 C-7.13636552 17.92174333 -7.13636552 17.92174333 -8 20 C-8.66 20 -9.32 20 -10 20 C-10 21.65 -10 23.3 -10 25 C-10.804375 25.28875 -11.60875 25.5775 -12.4375 25.875 C-15.1326468 26.73262568 -15.1326468 26.73262568 -16 29 C-17.66666667 29.66666667 -19.33333333 30.33333333 -21 31 C-23.02456848 32.29572383 -25.02678947 33.6273318 -27 35 C-29.622514 36.74834267 -30.99484478 37.51529754 -34 38 C-34.99 37.505 -34.99 37.505 -36 37 C-37.86323318 37.25288812 -39.71708432 37.57690153 -41.5625 37.9375 C-46.82762035 38.8838244 -51.66157022 39.17794766 -57 39 C-57 38.34 -57 37.68 -57 37 C-60.3 36.67 -63.6 36.34 -67 36 C-67 35.34 -67 34.68 -67 34 C-70.96 33.505 -70.96 33.505 -75 33 C-75 32.01 -75 31.02 -75 30 C-75.66 30 -76.32 30 -77 30 C-77 29.34 -77 28.68 -77 28 C-75.93458984 28.43119141 -75.93458984 28.43119141 -74.84765625 28.87109375 C-72.05793974 29.97703075 -69.25575498 31.03162231 -66.4375 32.0625 C-65.50808594 32.40410156 -64.57867187 32.74570312 -63.62109375 33.09765625 C-50.86271218 37.48988597 -37.5563332 35.28999478 -25.4765625 29.8671875 C-12.58368929 23.22273749 -6.2019996 12.67269945 0 0 Z " fill="#C94E6C" transform="translate(329,283)"/>
<path d="M0 0 C5.64707769 2.58152123 9.40549777 6.28014135 11.73190308 12.1210022 C12.64049278 15.41103378 12.85470081 18.09606487 12.84033203 21.50146484 C12.84018097 22.70225677 12.84002991 23.90304871 12.83987427 25.14022827 C12.8295517 26.42168732 12.81922913 27.70314636 12.80859375 29.0234375 C12.80485915 30.36007474 12.80201429 31.69671474 12.80001831 33.03335571 C12.79241702 36.53505132 12.77279913 40.0365785 12.75061035 43.53820801 C12.73007599 47.11789675 12.72100043 50.69761296 12.7109375 54.27734375 C12.68954952 61.28913826 12.65439635 68.30079368 12.61328125 75.3125 C20.86328125 75.3125 29.11328125 75.3125 37.61328125 75.3125 C37.61328125 75.9725 37.61328125 76.6325 37.61328125 77.3125 C34.17791491 78.37464225 31.06961244 78.38289472 27.48828125 78.3125 C23.39488697 78.10432142 23.39488697 78.10432142 19.61328125 79.3125 C16.97328125 78.6525 14.33328125 77.9925 11.61328125 77.3125 C11.28328125 57.8425 10.95328125 38.3725 10.61328125 18.3125 C10.28328125 18.3125 9.95328125 18.3125 9.61328125 18.3125 C9.11828125 13.8575 9.11828125 13.8575 8.61328125 9.3125 C7.62328125 8.9825 6.63328125 8.6525 5.61328125 8.3125 C4.61328125 7.3125 3.61328125 6.3125 2.61328125 5.3125 C-1.05242553 2.90962044 -4.51609499 2.94758484 -8.82421875 2.875 C-10.77134766 2.81505859 -10.77134766 2.81505859 -12.7578125 2.75390625 C-17.22848941 3.44207288 -18.47054591 4.97458788 -21.38671875 8.3125 C-22.37671875 8.6425 -23.36671875 8.9725 -24.38671875 9.3125 C-25.11995671 11.32758358 -25.11995671 11.32758358 -25.38671875 13.3125 C-26.04671875 13.3125 -26.70671875 13.3125 -27.38671875 13.3125 C-27.2221669 14.01787399 -27.05761505 14.72324799 -26.88807678 15.44999695 C-26.36741471 18.42271638 -26.30481538 21.09711995 -26.36499023 24.11254883 C-26.38508652 25.25335403 -26.4051828 26.39415924 -26.42588806 27.5695343 C-26.45292313 28.79053329 -26.47995819 30.01153229 -26.5078125 31.26953125 C-26.53142349 32.52763107 -26.55503448 33.7857309 -26.57936096 35.08195496 C-26.64287437 38.41435919 -26.71109539 41.74659887 -26.78161621 45.07885742 C-26.85251718 48.48413549 -26.91720355 51.88953107 -26.98242188 55.29492188 C-27.11147256 61.96757073 -27.24673307 68.64007208 -27.38671875 75.3125 C-28.04671875 75.3125 -28.70671875 75.3125 -29.38671875 75.3125 C-29.4797252 67.62776292 -29.55063827 59.94308479 -29.59396744 52.25791168 C-29.6147719 48.68866481 -29.64295644 45.11980526 -29.68847656 41.55078125 C-29.73219275 38.10129534 -29.75590946 34.65218008 -29.76622772 31.20243835 C-29.7771288 29.25710818 -29.80831341 27.31192548 -29.83990479 25.36682129 C-29.8419459 17.25542789 -29.13326308 11.5684429 -23.60546875 5.2890625 C-23.03828125 4.84304688 -22.47109375 4.39703125 -21.88671875 3.9375 C-21.31953125 3.47601563 -20.75234375 3.01453125 -20.16796875 2.5390625 C-14.07755548 -1.65477471 -7.1098376 -2.04800559 0 0 Z " fill="#B74B6D" transform="translate(474.38671875,478.6875)"/>
<path d="M0 0 C0.99 0.495 0.99 0.495 2 1 C2.33 9.91 2.66 18.82 3 28 C2.34 28 1.68 28 1 28 C0.814375 29.6396875 0.814375 29.6396875 0.625 31.3125 C0 35 0 35 -2 38 C-2.66 38 -3.32 38 -4 38 C-4.0928125 39.8253125 -4.0928125 39.8253125 -4.1875 41.6875 C-4.78355937 46.28682299 -6.4312887 47.9627989 -10 51 C-11.98811696 53.06844492 -13.96327199 55.14877269 -15.9375 57.23046875 C-18.21762322 59.18671083 -20.18899366 59.98251918 -23 61 C-24.58862432 61.84428544 -26.17191352 62.69867815 -27.75 63.5625 C-32.64785456 66.0078312 -36.56433348 66.88675695 -42 67 C-43.216875 67.03867187 -44.43375 67.07734375 -45.6875 67.1171875 C-51.89768194 67.24104161 -57.09536913 67.13715538 -63 65 C-63.99 65 -64.98 65 -66 65 C-66 64.34 -66 63.68 -66 63 C-67.0828125 62.814375 -67.0828125 62.814375 -68.1875 62.625 C-70.95721894 62.0095069 -73.3970354 61.11555626 -76 60 C-76 59.34 -76 58.68 -76 58 C-78.475 58.495 -78.475 58.495 -81 59 C-80.67 58.01 -80.34 57.02 -80 56 C-80.66 56 -81.32 56 -82 56 C-95.80081301 43.38211382 -95.80081301 43.38211382 -96.125 36.25 C-96.063125 35.13625 -96.063125 35.13625 -96 34 C-93.9471309 36.66512831 -92.13629236 39.38661242 -90.375 42.25 C-82.99014804 53.27297756 -71.84055966 59.99476263 -59 63 C-42.86048785 64.74072567 -28.42542175 61.3300322 -15.62890625 51.10546875 C-7.30729537 43.54164368 -0.49031481 31.6708304 0.15307617 20.29296875 C0.19631973 17.21342749 0.17469864 14.14190396 0.125 11.0625 C0.11597656 9.99708984 0.10695313 8.93167969 0.09765625 7.83398438 C0.07423414 5.22241966 0.04143452 2.61133063 0 0 Z " fill="#C8506E" transform="translate(545,333)"/>
<path d="M0 0 C5.59659591 3.24688007 9.4898997 7.95407411 11.546875 14.125 C11.63576331 16.10342761 11.66448373 18.08476634 11.66040039 20.06518555 C11.66032486 21.28622482 11.66024933 22.5072641 11.66017151 23.76530457 C11.65501022 25.08412125 11.64984894 26.40293793 11.64453125 27.76171875 C11.6426658 29.12506559 11.6412425 30.48841311 11.64024353 31.85176086 C11.63642832 35.43728491 11.62660655 39.02276835 11.61553955 42.60827637 C11.60530401 46.2681422 11.60074132 49.9280146 11.59570312 53.58789062 C11.58498338 60.76694773 11.56739465 67.945963 11.546875 75.125 C19.796875 75.125 28.046875 75.125 36.546875 75.125 C36.051875 76.61 36.051875 76.61 35.546875 78.125 C27.54485768 79.32345882 19.55694613 79.36311583 11.546875 78.125 C8.82949212 75.40761712 9.27349564 73.91892676 9.22802734 70.11474609 C9.20815765 68.85358978 9.18828796 67.59243347 9.16781616 66.2930603 C9.15593886 64.91152115 9.14427605 63.52998014 9.1328125 62.1484375 C9.1141079 60.73880876 9.09453502 59.32919129 9.0741272 57.91958618 C9.02272488 54.20754638 8.98314281 50.49547023 8.94598389 46.78326416 C8.90599478 42.99604241 8.85487929 39.20897285 8.8046875 35.421875 C8.70783243 27.98968762 8.62345863 20.55742683 8.546875 13.125 C7.886875 13.125 7.226875 13.125 6.546875 13.125 C6.876875 11.805 7.206875 10.485 7.546875 9.125 C6.556875 8.795 5.566875 8.465 4.546875 8.125 C4.546875 7.465 4.546875 6.805 4.546875 6.125 C3.226875 5.465 1.906875 4.805 0.546875 4.125 C0.546875 3.465 0.546875 2.805 0.546875 2.125 C-1.103125 2.455 -2.753125 2.785 -4.453125 3.125 C-4.453125 2.465 -4.453125 1.805 -4.453125 1.125 C-5.34 1.434375 -6.226875 1.74375 -7.140625 2.0625 C-9.92568575 2.95582137 -12.58768346 3.58288944 -15.453125 4.125 C-18.57097613 4.77144661 -18.57097613 4.77144661 -19.453125 7.125 C-22.38542951 9.10628683 -24.96414821 10.47889319 -28.453125 11.125 C-22.84220459 0.21487698 -11.59977718 -4.13750014 0 0 Z " fill="#C54B6F" transform="translate(243.453125,478.875)"/>
<path d="M0 0 C0.66 0 1.32 0 2 0 C2 0.99 2 1.98 2 3 C2.66 3 3.32 3 4 3 C4 5.31 4 7.62 4 10 C4.66 10 5.32 10 6 10 C6.08164159 12.6881249 6.14079668 15.373723 6.1875 18.0625 C6.21263672 18.81466797 6.23777344 19.56683594 6.26367188 20.34179688 C6.33324747 25.69911789 5.41667968 29.21402652 3 34 C2.443125 35.134375 1.88625 36.26875 1.3125 37.4375 C0.879375 38.283125 0.44625 39.12875 0 40 C-0.66 40 -1.32 40 -2 40 C-2.33 40.99 -2.66 41.98 -3 43 C-7.33333333 46 -7.33333333 46 -10 46 C-10 46.66 -10 47.32 -10 48 C-11.98969233 49.02035504 -13.99300751 50.01410895 -16 51 C-16.72316406 51.35964844 -17.44632812 51.71929688 -18.19140625 52.08984375 C-22.6911391 54.22931064 -25.91969442 55.37172968 -31 55 C-31.99 55.495 -31.99 55.495 -33 56 C-35.31082534 56.09735819 -37.62462958 56.12977373 -39.9375 56.125 C-41.18402344 56.12757813 -42.43054688 56.13015625 -43.71484375 56.1328125 C-47 56 -47 56 -50 55 C-51.72795352 54.93197033 -53.45835365 54.91504355 -55.1875 54.9375 C-56.08855469 54.94652344 -56.98960937 54.95554687 -57.91796875 54.96484375 C-58.60503906 54.97644531 -59.29210937 54.98804688 -60 55 C-60.33 54.34 -60.66 53.68 -61 53 C-62.65 53 -64.3 53 -66 53 C-66 52.34 -66 51.68 -66 51 C-67.32 51 -68.64 51 -70 51 C-70 50.01 -70 49.02 -70 48 C-71.010625 48.04125 -72.02125 48.0825 -73.0625 48.125 C-76.02338417 47.73382628 -76.90832878 47.10102169 -78.953125 44.84765625 C-86.33144109 34.29170403 -86.33144109 34.29170403 -86 27 C-84 30 -84 30 -82.75 32.75 C-77.77726381 41.9850815 -70.05907693 47.5273723 -59.95019531 50.62890625 C-45.09602923 54.31447692 -27.05305969 53.54250247 -13.296875 46.64453125 C-5.20375578 41.64662815 0.34907061 34.9731563 2.55859375 25.640625 C4.05671727 16.67839935 2.82824272 8.55206727 0 0 Z " fill="#BA4467" transform="translate(391,503)"/>
<path d="M0 0 C0.732686 -0.00043808 1.46537201 -0.00087616 2.22026062 -0.00132751 C4.61196724 0.00074169 7.00294901 0.02398249 9.39453125 0.04760742 C11.06461199 0.05321006 12.7346977 0.057477 14.40478516 0.06047058 C18.77783067 0.07186685 23.15057223 0.10128841 27.52349854 0.13458252 C31.99479054 0.16539657 36.46613217 0.17900003 40.9375 0.1940918 C49.69414914 0.22616371 58.45055227 0.27729603 67.20703125 0.34057617 C68.19703125 3.31057617 68.19703125 3.31057617 69.20703125 6.34057617 C68.54703125 6.34057617 67.88703125 6.34057617 67.20703125 6.34057617 C66.71203125 4.36057617 66.71203125 4.36057617 66.20703125 2.34057617 C56.66205499 2.4018543 47.11737627 2.47900861 37.57269859 2.57629108 C33.14044395 2.6209702 28.7082807 2.66023169 24.27587891 2.68701172 C19.99631683 2.71306932 15.71710692 2.75348894 11.43776321 2.80376244 C9.80719008 2.82041458 8.17655606 2.83193915 6.54590988 2.83819008 C4.25728408 2.8478494 1.96955586 2.87592897 -0.31884766 2.90820312 C-1.62012604 2.91930618 -2.92140442 2.93040924 -4.26211548 2.94184875 C-10.45887693 3.64162824 -14.49859192 6.63121294 -19.04296875 10.71557617 C-20.31914062 11.84092773 -20.31914062 11.84092773 -21.62109375 12.98901367 C-25.26941657 16.93917615 -26.11021981 21.32483844 -27.08203125 26.51635742 C-27.30117188 27.67329102 -27.5203125 28.83022461 -27.74609375 30.0222168 C-27.9678125 31.22040039 -28.18953125 32.41858398 -28.41796875 33.65307617 C-28.76214844 35.47935547 -28.76214844 35.47935547 -29.11328125 37.3425293 C-29.67771033 40.3410588 -30.23743709 43.34038776 -30.79296875 46.34057617 C-31.78296875 46.34057617 -32.77296875 46.34057617 -33.79296875 46.34057617 C-33.61121094 45.67155273 -33.42945313 45.0025293 -33.2421875 44.31323242 C-31.80845971 38.83565703 -30.61482497 33.41404103 -29.76391602 27.82006836 C-28.19679543 17.72060102 -25.64862388 11.4504594 -17.9296875 4.66479492 C-12.1221511 1.06560875 -6.7624608 -0.03426923 0 0 Z " fill="#C2617A" transform="translate(429.79296875,206.659423828125)"/>
<path d="M0 0 C7.26 0 14.52 0 22 0 C24 4 24 4 23.625 6.25 C23.41875 6.8275 23.2125 7.405 23 8 C23 7.01 23 6.02 23 5 C22.34 5 21.68 5 21 5 C21 4.01 21 3.02 21 2 C14.4 2 7.8 2 1 2 C1 32.69 1 63.38 1 95 C8.59 95 16.18 95 24 95 C24 76.85 24 58.7 24 40 C24.33 40 24.66 40 25 40 C25 58.48 25 76.96 25 96 C16.75 96 8.5 96 0 96 C0 64.32 0 32.64 0 0 Z " fill="#380A2A" transform="translate(420,458)"/>
<path d="M0 0 C6.05991908 4.21510976 9.20955377 9.92296992 11 17 C12.07775326 24.24427963 10.44408554 29.63459191 7 36 C6.06576355 32.98968256 5.95550089 32.13349732 7 29 C7.66 29 8.32 29 9 29 C8.88597936 26.72858891 8.75841495 24.45785448 8.625 22.1875 C8.52058594 20.29064453 8.52058594 20.29064453 8.4140625 18.35546875 C8.23897061 14.87244766 8.23897061 14.87244766 6 12 C6 11.34 6 10.68 6 10 C5.34 9.34 4.68 8.68 4 8 C3.34 7.34 2.68 6.68 2 6 C2 5.34 2 4.68 2 4 C0.00491933 3.31875294 -1.99638693 2.65572791 -4 2 C-5.051875 1.62875 -6.10375 1.2575 -7.1875 0.875 C-13.60070248 -0.59688254 -20.18767412 -1.45866576 -26.0625 2 C-27.031875 2.66 -28.00125 3.32 -29 4 C-29.66 4 -30.32 4 -31 4 C-31 4.99 -31 5.98 -31 7 C-31.66 7 -32.32 7 -33 7 C-33 7.99 -33 8.98 -33 10 C-33.99 10 -34.98 10 -36 10 C-36.33 12.97 -36.66 15.94 -37 19 C-37.66 19 -38.32 19 -39 19 C-38.7834375 19.74765625 -38.566875 20.4953125 -38.34375 21.265625 C-38.0653125 22.25046875 -37.786875 23.2353125 -37.5 24.25 C-37.2215625 25.22453125 -36.943125 26.1990625 -36.65625 27.203125 C-36 30 -36 30 -36 34 C-39.4779739 30.5220261 -40.13907992 26.40643932 -40.3125 21.625 C-40.05185448 13.42152512 -36.89808777 7.92647765 -31.30859375 1.98828125 C-21.80125986 -6.19993017 -10.64875325 -5.35616395 0 0 Z " fill="#C85976" transform="translate(510,325)"/>
<path d="M0 0 C1.77511429 2.66267143 3.17432214 5.2803747 4.625 8.125 C12.18516498 21.94877992 23.08330861 28.77885902 37.79296875 33.5859375 C52.32488132 36.31227862 65.81092115 33.04939169 78 25 C78.66 25.33 79.32 25.66 80 26 C79.505 27.485 79.505 27.485 79 29 C77.07760335 29.7623297 75.14942642 30.51417081 73.19140625 31.1796875 C71.07313386 31.97262369 69.25433743 32.91020086 67.3125 34.0625 C60.65577601 37.95605554 56.08920041 38.1988798 48.5 37.75 C47.56285156 37.71003906 46.62570313 37.67007813 45.66015625 37.62890625 C41.00265211 37.38446986 37.28125393 36.97596335 33 35 C30.6679198 34.92353835 28.33154122 34.90856701 26 35 C26 34.01 26 33.02 26 32 C24.68 31.67 23.36 31.34 22 31 C22 30.34 22 29.68 22 29 C21.01 29 20.02 29 19 29 C19 28.34 19 27.68 19 27 C18.01 27 17.02 27 16 27 C16 26.34 16 25.68 16 25 C15.01 24.67 14.02 24.34 13 24 C13 23.34 13 22.68 13 22 C12.34 22 11.68 22 11 22 C9.74817113 20.55558208 8.49910559 19.10701493 7.31640625 17.60546875 C6.0326986 15.96199653 6.0326986 15.96199653 4.4453125 14.578125 C2.69698303 12.66913823 2.0959403 11.02059576 1.3125 8.5625 C1.06113281 7.80066406 0.80976562 7.03882813 0.55078125 6.25390625 C0 4 0 4 0 0 Z " fill="#C6506D" transform="translate(105,284)"/>
<path d="M0 0 C9.9 0 19.8 0 30 0 C30.969375 2.10375 31.93875 4.2075 32.9375 6.375 C36.27105321 13.2772266 40.5342354 18.60495693 46 24 C46.74894531 24.75023437 47.49789062 25.50046875 48.26953125 26.2734375 C48.84058594 26.84320313 49.41164062 27.41296875 50 28 C49.01 28.33 48.02 28.66 47 29 C43.54586752 25.64745966 40.39332457 22.1686789 37.33203125 18.453125 C36.0420309 16.87220817 36.0420309 16.87220817 34 16 C32.9296875 13.78515625 32.9296875 13.78515625 31.875 11.0625 C31.52179688 10.16660156 31.16859375 9.27070313 30.8046875 8.34765625 C30 6 30 6 30 4 C25.55236871 2.82911082 21.34983125 3.04650543 16.8125 3.375 C16.08869141 3.41882813 15.36488281 3.46265625 14.61914062 3.5078125 C10.68051247 3.71887108 10.68051247 3.71887108 7 5 C7 4.34 7 3.68 7 3 C2.52047791 5.23976105 0.69928422 7.86109752 -2 12 C-2.99 12.33 -3.98 12.66 -5 13 C-3.57070062 8.49220966 -1.88030995 4.38738988 0 0 Z " fill="#C75874" transform="translate(202,283)"/>
<path d="M0 0 C0.495 1.485 0.495 1.485 1 3 C0.03542166 4.35917857 -0.96854629 5.69084721 -2 7 C-2.08507812 7.61746094 -2.17015625 8.23492187 -2.2578125 8.87109375 C-3.39465225 12.13202882 -5.68883766 13.21949563 -8.5 15.125 C-12.36171759 17.51581446 -12.36171759 17.51581446 -15 21 C-16.98320018 22.03291676 -18.98347806 23.0337499 -21 24 C-21.495 24.495 -21.495 24.495 -22 25 C-23.66617115 25.04063832 -25.33388095 25.042721 -27 25 C-27 25.66 -27 26.32 -27 27 C-29.96852993 30.09221868 -32.92912835 30.50731973 -37 30.984375 C-39 31 -39 31 -40.93359375 30.51171875 C-44.16740324 29.7109077 -47.35064774 30.03573864 -50.66015625 30.16015625 C-53 30 -53 30 -56 28 C-57.71444889 27.56261304 -59.44667784 27.19151312 -61.1875 26.875 C-62.08855469 26.70742187 -62.98960937 26.53984375 -63.91796875 26.3671875 C-64.60503906 26.24601562 -65.29210937 26.12484375 -66 26 C-66.33 25.01 -66.66 24.02 -67 23 C-69.01508358 22.26676204 -69.01508358 22.26676204 -71 22 C-70.67 21.34 -70.34 20.68 -70 20 C-69.27554688 20.34933594 -68.55109375 20.69867188 -67.8046875 21.05859375 C-66.83789062 21.51363281 -65.87109375 21.96867187 -64.875 22.4375 C-63.92367187 22.88996094 -62.97234375 23.34242188 -61.9921875 23.80859375 C-51.21749965 28.09877625 -36.69401697 27.29699171 -26 23 C-14.30866811 17.68575823 -6.91000487 10.73210132 0 0 Z " fill="#C45B75" transform="translate(591,218)"/>
<path d="M0 0 C3.3125 0.1875 3.3125 0.1875 6.3125 2.1875 C5.35988281 2.20167969 4.40726562 2.21585937 3.42578125 2.23046875 C-3.36103115 2.21438409 -3.36103115 2.21438409 -9.625 4.33203125 C-11.04351586 5.81703384 -11.04351586 5.81703384 -12.6875 8.1875 C-13.6775 8.5175 -14.6675 8.8475 -15.6875 9.1875 C-16.42073796 11.20258358 -16.42073796 11.20258358 -16.6875 13.1875 C-17.3475 13.1875 -18.0075 13.1875 -18.6875 13.1875 C-18.52294815 13.89287399 -18.3583963 14.59824799 -18.18885803 15.32499695 C-17.66819596 18.29771638 -17.60559663 20.97211995 -17.66577148 23.98754883 C-17.68586777 25.12835403 -17.70596405 26.26915924 -17.72666931 27.4445343 C-17.75370438 28.66553329 -17.78073944 29.88653229 -17.80859375 31.14453125 C-17.83220474 32.40263107 -17.85581573 33.6607309 -17.88014221 34.95695496 C-17.94365562 38.28935919 -18.01187664 41.62159887 -18.08239746 44.95385742 C-18.15329843 48.35913549 -18.2179848 51.76453107 -18.28320312 55.16992188 C-18.41225381 61.84257073 -18.54751432 68.51507208 -18.6875 75.1875 C-19.3475 75.1875 -20.0075 75.1875 -20.6875 75.1875 C-20.78050645 67.50276292 -20.85141952 59.81808479 -20.89474869 52.13291168 C-20.91555315 48.56366481 -20.94373769 44.99480526 -20.98925781 41.42578125 C-21.032974 37.97629534 -21.05669071 34.52718008 -21.06700897 31.07743835 C-21.07791005 29.13210818 -21.10909466 27.18692548 -21.14068604 25.24182129 C-21.14274428 17.06235617 -20.33343506 11.57427574 -14.9765625 5.12890625 C-9.97825158 0.98711339 -6.48277051 0.3296324 0 0 Z " fill="#C54B6F" transform="translate(465.6875,478.8125)"/>
<path d="M0 0 C1.17473831 1.76210747 2.31651944 3.5485138 3.375 5.3828125 C10.77479134 17.86996038 20.62273121 25.60788594 34.4296875 30.12109375 C40.82462735 31.62672435 47.46470235 31.4713789 54 31.625 C55.36069998 31.66325652 56.72137774 31.70231248 58.08203125 31.7421875 C61.3878882 31.83597068 64.69374674 31.92167389 68 32 C68 33.65 68 35.3 68 37 C67.28900146 36.67781494 66.57800293 36.35562988 65.84545898 36.02368164 C62.88055331 34.95702789 60.61009366 34.70462624 57.47265625 34.62109375 C55.91321289 34.56985352 55.91321289 34.56985352 54.32226562 34.51757812 C53.24654297 34.49115234 52.17082031 34.46472656 51.0625 34.4375 C38.4186386 34.08015695 38.4186386 34.08015695 33 33 C32.34 33 31.68 33 31 33 C30.67 32.34 30.34 31.68 30 31 C27.88153715 30.31270746 27.88153715 30.31270746 25.4375 29.875 C24.61121094 29.70742188 23.78492188 29.53984375 22.93359375 29.3671875 C22.29550781 29.24601562 21.65742188 29.12484375 21 29 C21 28.01 21 27.02 21 26 C19.68 26 18.36 26 17 26 C15.62131719 24.37064759 14.28725907 22.70250393 13 21 C12.01 20.67 11.02 20.34 10 20 C8.24609375 17.78515625 8.24609375 17.78515625 6.4375 15.0625 C3.952948 11.33955173 3.952948 11.33955173 1 8 C0.43479997 5.34462628 0.26211802 2.70855287 0 0 Z " fill="#C55571" transform="translate(379,327)"/>
<path d="M0 0 C3.81235104 -0.08809201 7.62443553 -0.1407549 11.4375 -0.1875 C12.50677734 -0.21263672 13.57605469 -0.23777344 14.67773438 -0.26367188 C23.02497753 -0.34025209 30.86018873 0.3707483 37.3125 6.1875 C37.92738281 6.71730469 38.54226563 7.24710937 39.17578125 7.79296875 C44.17790297 13.84478625 45.84538477 20.59350626 47.1875 28.1875 C47.35185547 29.06341797 47.51621094 29.93933594 47.68554688 30.84179688 C47.99784027 32.50946888 48.30285005 34.17852822 48.59912109 35.84912109 C48.92061198 37.5740509 49.31743706 39.28486428 49.73828125 40.98828125 C49.82464844 41.65214844 49.91101563 42.31601562 50 43 C49.34 43.66 48.68 44.32 48 45 C45.80421224 36.67643243 43.69396159 28.60512376 43 20 C42.68377223 17.99722415 42.35820185 15.99569601 42 14 C41.34 14 40.68 14 40 14 C37 10.53846154 37 10.53846154 37 8 C33.42979269 6.31406877 31.75593417 5.96388023 28 7 C27.34 6.34 26.68 5.68 26 5 C26 4.01 26 3.02 26 2 C17.42 2 8.84 2 0 2 C-0.33 3.65 -0.66 5.3 -1 7 C-1.33 7.66 -1.66 8.32 -2 9 C-2.66 8.67 -3.32 8.34 -4 8 C-2.68 5.36 -1.36 2.72 0 0 Z " fill="#C85875" transform="translate(329,283)"/>
<path d="M0 0 C3.50530886 2.76201445 5.23744634 6.12640151 6.62109375 10.27734375 C6.74078805 12.46246063 6.79636828 14.65148522 6.80859375 16.83984375 C6.82277344 17.99613281 6.83695312 19.15242187 6.8515625 20.34375 C6.62109375 23.27734375 6.62109375 23.27734375 4.62109375 25.27734375 C4.56501953 23.61445312 4.56501953 23.61445312 4.5078125 21.91796875 C4.44213927 20.45439401 4.3756924 18.99085384 4.30859375 17.52734375 C4.27475586 16.43292969 4.27475586 16.43292969 4.24023438 15.31640625 C4.0295322 11.10236284 3.76754869 8.23695457 0.62109375 5.27734375 C-0.36890625 4.94734375 -1.35890625 4.61734375 -2.37890625 4.27734375 C-2.70890625 3.28734375 -3.03890625 2.29734375 -3.37890625 1.27734375 C-9.18076689 -1.08637725 -13.71390314 -0.96888285 -19.68359375 0.91015625 C-24.69781832 3.4536035 -27.74891378 7.3830262 -30.37890625 12.27734375 C-31.23272394 15.46743181 -31.37890625 17.93966012 -31.37890625 21.27734375 C-31.70890625 21.27734375 -32.03890625 21.27734375 -32.37890625 21.27734375 C-32.72376672 14.92935665 -32.73182508 9.90159468 -29.37890625 4.27734375 C-21.72281181 -3.89655418 -9.96345973 -5.82064903 0 0 Z " fill="#C04668" transform="translate(362.37890625,502.72265625)"/>
<path d="M0 0 C5.29102413 3.74330959 9.36931233 8.38293957 11.296875 14.625 C12.11684192 23.13930767 12.19147822 30.42705409 7.296875 37.625 C6.306875 38.12 6.306875 38.12 5.296875 38.625 C5.296875 37.305 5.296875 35.985 5.296875 34.625 C5.956875 34.625 6.616875 34.625 7.296875 34.625 C7.296875 33.305 7.296875 31.985 7.296875 30.625 C7.956875 30.625 8.616875 30.625 9.296875 30.625 C9.20976396 27.87349263 9.10287885 25.12518367 8.984375 22.375 C8.95053711 21.20904297 8.95053711 21.20904297 8.91601562 20.01953125 C8.70579046 15.54746855 8.36388744 13.07847245 5.296875 9.625 C5.296875 8.635 5.296875 7.645 5.296875 6.625 C3.976875 6.295 2.656875 5.965 1.296875 5.625 C1.296875 4.635 1.296875 3.645 1.296875 2.625 C-0.62125 2.439375 -0.62125 2.439375 -2.578125 2.25 C-6.453125 1.875 -6.453125 1.875 -8.703125 -0.375 C-13.4012767 -0.67810656 -16.61622251 -0.85633365 -20.703125 1.625 C-21.404375 1.79 -22.105625 1.955 -22.828125 2.125 C-24.92991983 2.51777065 -24.92991983 2.51777065 -26.703125 4.625 C-26.703125 3.965 -26.703125 3.305 -26.703125 2.625 C-27.363125 2.295 -28.023125 1.965 -28.703125 1.625 C-20.32535599 -5.46388147 -9.25622902 -5.1882048 0 0 Z " fill="#C95570" transform="translate(293.703125,246.375)"/>
<path d="M0 0 C0.99 0.66 1.98 1.32 3 2 C2.30132813 2.02578125 1.60265625 2.0515625 0.8828125 2.078125 C-0.02726563 2.13484375 -0.93734375 2.1915625 -1.875 2.25 C-2.77992188 2.29640625 -3.68484375 2.3428125 -4.6171875 2.390625 C-5.40351562 2.59171875 -6.18984375 2.7928125 -7 3 C-8.14179639 4.99172154 -8.14179639 4.99172154 -9 7 C-10.546875 7.12375 -10.546875 7.12375 -12.125 7.25 C-17.72671577 8.33420305 -20.40196166 11.74852481 -24 16 C-26.45391569 19.68087353 -26.22802759 22.44355588 -26.125 26.6875 C-26.11597656 27.38939453 -26.10695313 28.09128906 -26.09765625 28.81445312 C-26.07413704 30.54311525 -26.03826713 32.27160145 -26 34 C-26.66 34 -27.32 34 -28 34 C-30.06813602 27.79559195 -29.71180048 20.94110526 -27.09375 14.94140625 C-21.61302363 5.21311694 -11.62970834 -2.25935029 0 0 Z " fill="#D34567" transform="translate(550,169)"/>
<path d="M0 0 C1.914962 0.96429581 3.77960736 2.02724031 5.6328125 3.10546875 C5.3028125 3.76546875 4.9728125 4.42546875 4.6328125 5.10546875 C3.6428125 4.77546875 2.6528125 4.44546875 1.6328125 4.10546875 C1.6328125 3.44546875 1.6328125 2.78546875 1.6328125 2.10546875 C-0.42850892 1.9968193 -2.49150071 1.91958554 -4.5546875 1.85546875 C-5.70324219 1.8090625 -6.85179687 1.76265625 -8.03515625 1.71484375 C-11.99217671 2.17873829 -13.46040983 3.48265693 -16.3671875 6.10546875 C-17.0271875 6.10546875 -17.6871875 6.10546875 -18.3671875 6.10546875 C-20.40453719 12.21751781 -21.46674817 17.80678675 -19.3671875 24.10546875 C-16.68102665 27.27130118 -14.374282 28.98720982 -10.3671875 30.10546875 C-5.89922663 30.41900986 -3.28140822 30.13006568 0.6328125 28.10546875 C2.8828125 28.48046875 2.8828125 28.48046875 4.6328125 29.10546875 C-1.03656438 32.06340451 -5.97871532 33.05581998 -12.3671875 32.10546875 C-17.35387757 29.61212372 -20.86394224 26.11195926 -23.3671875 21.10546875 C-23.8910451 15.8497171 -24.03224122 11.4602078 -21.6796875 6.66796875 C-15.69446777 0.03569824 -8.80353096 -3.32674685 0 0 Z " fill="#BD4C6E" transform="translate(356.3671875,447.89453125)"/>
<path d="M0 0 C1.8203125 2.140625 1.8203125 2.140625 3 4 C2.484375 3.731875 1.96875 3.46375 1.4375 3.1875 C0.633125 2.795625 -0.17125 2.40375 -1 2 C-1.969375 1.46375 -2.93875 0.9275 -3.9375 0.375 C-9.25826042 -1.88718881 -15.34954 -1.72955306 -21 -1 C-22.69442943 -0.04779903 -24.36667498 0.94642174 -26 2 C-26.99 2 -27.98 2 -29 2 C-29 2.66 -29 3.32 -29 4 C-29.763125 4.53625 -30.52625 5.0725 -31.3125 5.625 C-34.79096184 8.69898954 -36.16479076 11.52566476 -37 16 C-37.23375982 21.01567264 -37.17635011 25.98381912 -37 31 C-36.01 31.33 -35.02 31.66 -34 32 C-34 33.65 -34 35.3 -34 37 C-38.70226046 32.81143186 -40.1181504 26.70482361 -40.5 20.5625 C-40.18893148 13.13573904 -36.49131252 7.02164095 -31.125 2.0625 C-21.21536257 -5.79111919 -11.0389665 -5.86331991 0 0 Z " fill="#C45470" transform="translate(168,247)"/>
<path d="M0 0 C0.66 0.33 1.32 0.66 2 1 C1.83734146 1.86613922 1.67468292 2.73227844 1.50709534 3.62466431 C1.02719569 6.81897966 0.87943131 9.77954001 0.88647461 13.00537109 C0.88658791 14.74649673 0.88658791 14.74649673 0.88670349 16.52279663 C0.89186478 17.76050812 0.89702606 18.9982196 0.90234375 20.2734375 C0.9037587 21.55231842 0.90517365 22.83119934 0.90663147 24.14883423 C0.91126978 27.53211336 0.92023919 30.91532386 0.93133545 34.29858398 C0.94160485 37.75764374 0.94614089 41.21671061 0.95117188 44.67578125 C0.96218391 51.45053966 0.97890936 58.22526587 1 65 C-4.42610465 65.84490795 -9.30284161 66.03448304 -14.75 65.6875 C-15.50410156 65.65205078 -16.25820312 65.61660156 -17.03515625 65.58007812 C-20.79778075 65.35619194 -22.80433831 65.13044112 -26 63 C-17.75 63 -9.5 63 -1 63 C-1.00523682 61.23366211 -1.01047363 59.46732422 -1.01586914 57.64746094 C-1.03200155 51.8080837 -1.04348815 45.96870723 -1.05181217 40.12931442 C-1.05702825 36.58928939 -1.06410276 33.04928849 -1.07543945 29.50927734 C-1.08839423 25.43847422 -1.09323876 21.36769641 -1.09765625 17.296875 C-1.10281754 16.02696716 -1.10797882 14.75705933 -1.11329651 13.44866943 C-1.11337204 12.26774719 -1.11344757 11.08682495 -1.11352539 9.87011719 C-1.115746 8.83087097 -1.11796661 7.79162476 -1.12025452 6.72088623 C-1.01374985 4.31110502 -0.69407081 2.29963193 0 0 Z " fill="#B75076" transform="translate(214,491)"/>
<path d="M0 0 C-0.33 0.99 -0.66 1.98 -1 3 C-2.66080678 3.68113367 -4.32864723 4.34517013 -6 5 C-8.65976948 6.97408535 -8.65976948 6.97408535 -11.1875 9.3125 C-12.47720703 10.45138672 -12.47720703 10.45138672 -13.79296875 11.61328125 C-17.46412818 15.58333153 -18.31152707 19.95368408 -19.2890625 25.17578125 C-19.50820313 26.33271484 -19.72734375 27.48964844 -19.953125 28.68164062 C-20.28570312 30.47891602 -20.28570312 30.47891602 -20.625 32.3125 C-20.96917969 34.1387793 -20.96917969 34.1387793 -21.3203125 36.00195312 C-21.88474158 39.00048263 -22.44446834 41.99981159 -23 45 C-23.99 45 -24.98 45 -26 45 C-25.81824219 44.33097656 -25.63648438 43.66195312 -25.44921875 42.97265625 C-24.01549096 37.49508086 -22.82185622 32.07346486 -21.97094727 26.47949219 C-20.37589465 16.2000141 -17.8305532 9.91071143 -9.74609375 3.2265625 C-6.22904884 0.75597614 -4.42173145 0 0 0 Z " fill="#C65671" transform="translate(422,208)"/>
<path d="M0 0 C8.41877813 0.33275803 13.32582749 1.97270768 19.1875 8.25 C23.91882406 14.09895966 25.56862586 19.9624307 25.37109375 27.45703125 C24.7550071 31.67884608 23.0160471 35.27391294 21 39 C20.06576355 35.98968256 19.95550089 35.13349732 21 32 C21.66 32 22.32 32 23 32 C22.88597936 29.72858891 22.75841495 27.45785448 22.625 25.1875 C22.55539062 23.92292969 22.48578125 22.65835937 22.4140625 21.35546875 C22.23897061 17.87244766 22.23897061 17.87244766 20 15 C20 14.34 20 13.68 20 13 C19.34 12.34 18.68 11.68 18 11 C17.34 10.34 16.68 9.68 16 9 C16 8.34 16 7.68 16 7 C15.175 6.731875 14.35 6.46375 13.5 6.1875 C10.90928699 5.30850808 8.32424809 4.425414 5.75 3.5 C5.08484375 3.2628125 4.4196875 3.025625 3.734375 2.78125 C2 2 2 2 0 0 Z " fill="#C95572" transform="translate(496,322)"/>
<path d="M0 0 C0.33 0 0.66 0 1 0 C1.03738281 0.845625 1.07476562 1.69125 1.11328125 2.5625 C1.77497178 13.97990523 3.57430801 20.97992119 12 29 C14.72033273 30.95660051 14.72033273 30.95660051 17 32 C16.67 32.99 16.34 33.98 16 35 C12.9375 36.1875 12.9375 36.1875 10 37 C9.9175 35.906875 9.835 34.81375 9.75 33.6875 C8.88751232 29.44693558 8.37910852 29.28586753 5 27 C3.93753473 25.03247172 2.92862192 23.03412421 2 21 C1.67 20.67 1.34 20.34 1 20 C0.95919217 18.00041636 0.95745644 15.99954746 1 14 C0.34 14 -0.32 14 -1 14 C-1.02685938 11.85423363 -1.04633088 9.70837355 -1.0625 7.5625 C-1.07410156 6.36753906 -1.08570313 5.17257812 -1.09765625 3.94140625 C-1 1 -1 1 0 0 Z " fill="#B1476A" transform="translate(308,456)"/>
<path d="M0 0 C0.99 0.33 1.98 0.66 3 1 C2.01 3.97 1.02 6.94 0 10 C-9.24 10 -18.48 10 -28 10 C-28.66 7.03 -29.32 4.06 -30 1 C-29.34 1 -28.68 1 -28 1 C-27.34 2.98 -26.68 4.96 -26 7 C-18.41 7 -10.82 7 -3 7 C-2.67 6.34 -2.34 5.68 -2 5 C-1.34 5 -0.68 5 0 5 C0 3.35 0 1.7 0 0 Z " fill="#D9607D" transform="translate(231,248)"/>
<path d="M0 0 C1.14275391 0.50660156 1.14275391 0.50660156 2.30859375 1.0234375 C3.34113281 1.46945313 4.37367188 1.91546875 5.4375 2.375 C6.44683594 2.81585938 7.45617187 3.25671875 8.49609375 3.7109375 C16.41367934 6.62376163 23.66051344 7.27701924 32.0625 7.125 C33.02349609 7.11597656 33.98449219 7.10695312 34.97460938 7.09765625 C37.31667805 7.07435208 39.65819792 7.04164058 42 7 C41.34 7.99 40.68 8.98 40 10 C33.2321715 11.30990229 33.2321715 11.30990229 30.05859375 10.51171875 C26.82853416 9.70880071 23.64608738 10.03586138 20.33984375 10.16015625 C18 10 18 10 15 8 C13.28555111 7.56261304 11.55332216 7.19151312 9.8125 6.875 C8.91144531 6.70742187 8.01039063 6.53984375 7.08203125 6.3671875 C6.39496094 6.24601563 5.70789063 6.12484375 5 6 C4.67 5.01 4.34 4.02 4 3 C1.98491642 2.26676204 1.98491642 2.26676204 0 2 C0 1.34 0 0.68 0 0 Z " fill="#CD4565" transform="translate(520,238)"/>
<path d="M0 0 C8.25 0 16.5 0 25 0 C24.67 0.99 24.34 1.98 24 3 C15.88611956 4.21521251 8.14648632 3.76299944 0 3 C0 2.01 0 1.02 0 0 Z " fill="#BA4265" transform="translate(255,554)"/>
<path d="M0 0 C7.92 0 15.84 0 24 0 C23.67 0.99 23.34 1.98 23 3 C15.41 3.33 7.82 3.66 0 4 C0 2.68 0 1.36 0 0 Z " fill="#B94164" transform="translate(420,554)"/>
<path d="M0 0 C8.58 0 17.16 0 26 0 C26 0.66 26 1.32 26 2 C22.56463366 3.06214225 19.45633119 3.07039472 15.875 3 C11.78160572 2.79182142 11.78160572 2.79182142 8 4 C6.0546875 3.66015625 6.0546875 3.66015625 3.875 3.0625 C3.15054687 2.86785156 2.42609375 2.67320312 1.6796875 2.47265625 C1.12539063 2.31667969 0.57109375 2.16070313 0 2 C0 1.34 0 0.68 0 0 Z " fill="#B94264" transform="translate(486,554)"/>
<path d="M0 0 C-0.60771625 3.40321099 -1.87821082 5.30695989 -4 8 C-7.48415629 12.55422886 -7.36687668 16.32541348 -7.1875 21.8125 C-7.17396484 22.60076172 -7.16042969 23.38902344 -7.14648438 24.20117188 C-7.11133456 26.13441169 -7.05753361 28.06729682 -7 30 C-10.17543553 26.82456447 -10.22876794 23.75134582 -10.375 19.4375 C-10.33194626 12.34224404 -8.12116535 6.59526641 -3.45703125 1.22265625 C-2 0 -2 0 0 0 Z " fill="#CB5976" transform="translate(265,249)"/>
<path d="M0 0 C4.81114598 4.29102209 7.46863372 8.19868736 8.35546875 14.54296875 C8.72657826 21.65422933 7.00404333 27.10313618 3 33 C2.01 33.495 2.01 33.495 1 34 C1 32.68 1 31.36 1 30 C1.66 29.67 2.32 29.34 3 29 C3.65555119 26.47266765 3.65555119 26.47266765 4 24 C4.66 24 5.32 24 6 24 C4.97876446 12.37891321 4.97876446 12.37891321 0 2 C0 1.34 0 0.68 0 0 Z " fill="#C95D78" transform="translate(171,251)"/>
<path d="M0 0 C0.87840996 3.09720845 0.99435406 4.90645403 0 8 C-0.66 8 -1.32 8 -2 8 C-2.268125 8.78375 -2.53625 9.5675 -2.8125 10.375 C-4 13 -4 13 -7 15 C-7.33 15.99 -7.66 16.98 -8 18 C-9.98 17.34 -11.96 16.68 -14 16 C-14 15.34 -14 14.68 -14 14 C-12.6403039 13.06983753 -11.23508116 12.20580596 -9.8125 11.375 C-5.03296955 8.32936861 -2.5302372 5.00961536 0 0 Z " fill="#C04668" transform="translate(388,474)"/>
<path d="M0 0 C2.97 0.495 2.97 0.495 6 1 C6 1.66 6 2.32 6 3 C7.09671021 3.03758423 7.09671021 3.03758423 8.21557617 3.07592773 C11.53971417 3.19222641 14.86359241 3.31479928 18.1875 3.4375 C19.33798828 3.47681641 20.48847656 3.51613281 21.67382812 3.55664062 C23.34155273 3.61948242 23.34155273 3.61948242 25.04296875 3.68359375 C26.57473755 3.73858032 26.57473755 3.73858032 28.13745117 3.79467773 C30.83828463 3.98840063 33.36166128 4.40451953 36 5 C36 5.33 36 5.66 36 6 C32.04192285 6.11761144 28.08430379 6.18771882 24.125 6.25 C22.46210938 6.30027344 22.46210938 6.30027344 20.765625 6.3515625 C13.51551444 6.43685792 7.36469914 5.70464683 1 2 C0.67 1.34 0.34 0.68 0 0 Z " fill="#DA6481" transform="translate(411,328)"/>
<path d="M0 0 C0.66 0.33 1.32 0.66 2 1 C2.33 9.91 2.66 18.82 3 28 C2.34 28 1.68 28 1 28 C0.814375 29.6396875 0.814375 29.6396875 0.625 31.3125 C0 35 0 35 -2 38 C-2.99 37.67 -3.98 37.34 -5 37 C-4.72285156 36.32453125 -4.44570313 35.6490625 -4.16015625 34.953125 C-3.79792969 34.06109375 -3.43570313 33.1690625 -3.0625 32.25 C-2.70285156 31.36828125 -2.34320312 30.4865625 -1.97265625 29.578125 C-0.41135132 25.43972639 0.12229637 22.0133462 0.09765625 17.578125 C0.09443359 16.55332031 0.09121094 15.52851563 0.08789062 14.47265625 C0.07951172 13.40917969 0.07113281 12.34570312 0.0625 11.25 C0.05573242 9.63158203 0.05573242 9.63158203 0.04882812 7.98046875 C0.03705727 5.32025617 0.02061399 2.66015635 0 0 Z " fill="#CE5977" transform="translate(545,333)"/>
<path d="M0 0 C0.66 0 1.32 0 2 0 C2 0.99 2 1.98 2 3 C2.66 3 3.32 3 4 3 C4 5.31 4 7.62 4 10 C4.66 10 5.32 10 6 10 C6.08164159 12.6881249 6.14079668 15.373723 6.1875 18.0625 C6.22520508 19.19075195 6.22520508 19.19075195 6.26367188 20.34179688 C6.33282151 25.66631856 5.40669334 29.24346434 3 34 C1.57142304 31.14284608 2.3605472 28.76524728 2.73046875 25.6875 C3.64649422 16.55379678 2.88404629 8.72080663 0 0 Z " fill="#C44B6F" transform="translate(391,503)"/>
<path d="M0 0 C-0.55349121 -0.01571045 -1.10698242 -0.0314209 -1.67724609 -0.04760742 C-16.77748151 -0.42000657 -27.2181207 -0.38740566 -39 10 C-39.66 9.67 -40.32 9.34 -41 9 C-31.24950301 -0.94606569 -13.23225342 -7.38707172 0 0 Z " fill="#340F2E" transform="translate(256,459)"/>
<path d="M0 0 C6.27 0.33 12.54 0.66 19 1 C16 5 16 5 13.58984375 5.42578125 C12.71457031 5.38839844 11.83929688 5.35101562 10.9375 5.3125 C10.05964844 5.28800781 9.18179688 5.26351562 8.27734375 5.23828125 C6 5 6 5 4 4 C4 3.34 4 2.68 4 2 C2.68 2 1.36 2 0 2 C0 1.34 0 0.68 0 0 Z " fill="#D64569" transform="translate(188,555)"/>
<path d="M0 0 C7.26 0 14.52 0 22 0 C24 4 24 4 23.625 6.25 C23.41875 6.8275 23.2125 7.405 23 8 C23 7.01 23 6.02 23 5 C22.34 5 21.68 5 21 5 C21 4.01 21 3.02 21 2 C14.4 2 7.8 2 1 2 C0.67 1.34 0.34 0.68 0 0 Z " fill="#4A1B3C" transform="translate(420,458)"/>
<path d="M0 0 C2.05149742 2.67115793 3.89776308 5.39872857 5.6875 8.25 C8.9044133 13.12362365 12.76664676 17.01035792 17 21 C18.00337645 21.99661211 19.00463313 22.99538824 20 24 C13.26147676 21.49711994 9.87504227 19.14661878 6 13 C5.34 12.67 4.68 12.34 4 12 C2.9296875 10.29296875 2.9296875 10.29296875 1.875 8.1875 C1.52179688 7.50042969 1.16859375 6.81335938 0.8046875 6.10546875 C0 4 0 4 0 0 Z " fill="#C95975" transform="translate(499,214)"/>
<path d="M0 0 C0 0.66 0 1.32 0 2 C-5.3687548 2.94450316 -10.31855863 3.03348187 -15.75 2.6875 C-16.50410156 2.65205078 -17.25820312 2.61660156 -18.03515625 2.58007812 C-21.79778075 2.35619194 -23.80433831 2.13044112 -27 0 C-22.87536584 -0.19622046 -18.75028427 -0.38050216 -14.625 -0.5625 C-13.449375 -0.61857422 -12.27375 -0.67464844 -11.0625 -0.73242188 C-9.94101563 -0.78076172 -8.81953125 -0.82910156 -7.6640625 -0.87890625 C-6.10872803 -0.94960327 -6.10872803 -0.94960327 -4.52197266 -1.02172852 C-2 -1 -2 -1 0 0 Z " fill="#B33F64" transform="translate(215,554)"/>
<path d="M0 0 C1.08381863 3.25145588 0.87453062 3.87149046 0 7 C-0.14033578 8.439735 -0.24416857 9.88337149 -0.31640625 11.328125 C-0.35830078 12.12734375 -0.40019531 12.9265625 -0.44335938 13.75 C-0.48267578 14.575 -0.52199219 15.4 -0.5625 16.25 C-0.60568359 17.09046875 -0.64886719 17.9309375 -0.69335938 18.796875 C-0.79908543 20.86440671 -0.90001295 22.93218281 -1 25 C-1.66 25 -2.32 25 -3 25 C-4.02636124 16.41813614 -4.54290696 9.05046682 -1 1 C-0.67 0.67 -0.34 0.34 0 0 Z " fill="#CF4F6D" transform="translate(104,252)"/>
<path d="M0 0 C0.33 0 0.66 0 1 0 C1.31375831 10.45861049 1.31697334 19.93061665 -2 30 C-2.99 30 -3.98 30 -5 30 C-4.79503906 29.25234375 -4.59007812 28.5046875 -4.37890625 27.734375 C-4.10949219 26.74953125 -3.84007812 25.7646875 -3.5625 24.75 C-3.16224609 23.28820312 -3.16224609 23.28820312 -2.75390625 21.796875 C-2.38072266 20.41242188 -2.38072266 20.41242188 -2 19 C-1.814375 18.38125 -1.62875 17.7625 -1.4375 17.125 C-0.7659948 13.8634033 -0.62874843 10.56706288 -0.4375 7.25 C-0.39431641 6.55261719 -0.35113281 5.85523438 -0.30664062 5.13671875 C-0.20110404 3.42468078 -0.1001009 1.71236439 0 0 Z " fill="#CA5974" transform="translate(597,187)"/>
<path d="M0 0 C0.33 1.32 0.66 2.64 1 4 C0.34 4 -0.32 4 -1 4 C-1 4.99 -1 5.98 -1 7 C-1.66 7 -2.32 7 -3 7 C-3.12375 7.78375 -3.2475 8.5675 -3.375 9.375 C-4 12 -4 12 -6 14 C-6.16687448 16.58354218 -6.16687448 16.58354218 -6 19 C-7.65 17.35 -9.3 15.7 -11 14 C-10.45730469 13.40832031 -9.91460937 12.81664062 -9.35546875 12.20703125 C-8.64003906 11.41683594 -7.92460937 10.62664062 -7.1875 9.8125 C-6.47980469 9.03519531 -5.77210938 8.25789063 -5.04296875 7.45703125 C-3.06664371 5.08015085 -1.51417406 2.68921134 0 0 Z " fill="#C95673" transform="translate(394,256)"/>
<path d="M0 0 C0.598125 0.20625 1.19625 0.4125 1.8125 0.625 C0.56514433 1.2759259 -0.68551832 1.92051669 -1.9375 2.5625 C-2.63359375 2.92214844 -3.3296875 3.28179687 -4.046875 3.65234375 C-7.94508709 5.42361165 -11.34239412 5.7463617 -15.609375 5.72265625 C-16.63417969 5.71943359 -17.65898437 5.71621094 -18.71484375 5.71289062 C-19.77832031 5.70451172 -20.84179688 5.69613281 -21.9375 5.6875 C-23.01644531 5.68298828 -24.09539062 5.67847656 -25.20703125 5.67382812 C-27.86724383 5.66205727 -30.52734365 5.64561399 -33.1875 5.625 C-33.1875 5.295 -33.1875 4.965 -33.1875 4.625 C-32.55247559 4.60518066 -31.91745117 4.58536133 -31.26318359 4.56494141 C-28.36256674 4.46918878 -25.46262095 4.35971454 -22.5625 4.25 C-21.56347656 4.2190625 -20.56445312 4.188125 -19.53515625 4.15625 C-13.55507453 3.91863086 -4.70525857 -0.80661576 0 0 Z " fill="#DA6984" transform="translate(363.1875,252.375)"/>
<path d="M0 0 C0.66 0.33 1.32 0.66 2 1 C1.67 1.99 1.34 2.98 1 4 C-0.92381513 4.76289221 -2.85410328 5.51427614 -4.81640625 6.171875 C-6.94599318 6.97951799 -8.65338662 7.9580483 -10.5625 9.1875 C-14.39022555 11.20575529 -16.73848316 11.34787893 -21 11 C-21 10.34 -21 9.68 -21 9 C-20.154375 8.76925781 -19.30875 8.53851563 -18.4375 8.30078125 C-10.53203337 6.02984327 -10.53203337 6.02984327 -3.3125 2.1875 C-2.219375 1.465625 -1.12625 0.74375 0 0 Z " fill="#C75775" transform="translate(183,309)"/>
<path d="M0 0 C0 3 0 3 -2 6.25 C-5.23423467 12.30849594 -4.31218391 19.34007657 -4 26 C-4.66 26 -5.32 26 -6 26 C-8.13789117 19.58632649 -7.55490078 12.94499323 -4.93359375 6.76171875 C-3.59256835 4.23116454 -1.91751295 2.11587636 0 0 Z " fill="#C85A75" transform="translate(528,177)"/>
<path d="M0 0 C1.64162109 -0.00386719 1.64162109 -0.00386719 3.31640625 -0.0078125 C4.46496094 -0.00007812 5.61351562 0.00765625 6.796875 0.015625 C7.92996094 0.00789062 9.06304687 0.00015625 10.23046875 -0.0078125 C11.33003906 -0.00523437 12.42960937 -0.00265625 13.5625 0 C14.56571289 0.00225586 15.56892578 0.00451172 16.60253906 0.00683594 C19.83265174 0.29074302 22.51899315 1.13171759 25.546875 2.265625 C25.546875 2.925625 25.546875 3.585625 25.546875 4.265625 C25.00804687 4.12125 24.46921875 3.976875 23.9140625 3.828125 C13.60023103 1.50023827 3.05355559 2.08488284 -7.453125 2.265625 C-4.8298957 -0.3576043 -3.6533293 0.00825212 0 0 Z " fill="#D15B77" transform="translate(147.453125,216.734375)"/>
<path d="M0 0 C0 0.66 0 1.32 0 2 C-1.3921875 2.3403125 -1.3921875 2.3403125 -2.8125 2.6875 C-6.55133644 4.22702089 -7.20239429 5.49466887 -9 9 C-9.99 9.495 -9.99 9.495 -11 10 C-11.69337792 13.0399648 -11.69337792 13.0399648 -12.125 16.5625 C-12.29257812 17.76003906 -12.46015625 18.95757813 -12.6328125 20.19140625 C-12.75398438 21.11824219 -12.87515625 22.04507813 -13 23 C-13.33 23 -13.66 23 -14 23 C-14.34486047 16.6520129 -14.35291883 11.62425093 -11 6 C-7.44139052 2.12335054 -5.41308356 0 0 0 Z " fill="#B2486A" transform="translate(344,501)"/>
<path d="M0 0 C1.914962 0.96429581 3.77960736 2.02724031 5.6328125 3.10546875 C5.3028125 3.76546875 4.9728125 4.42546875 4.6328125 5.10546875 C3.6428125 4.77546875 2.6528125 4.44546875 1.6328125 4.10546875 C1.6328125 3.44546875 1.6328125 2.78546875 1.6328125 2.10546875 C-0.59628621 2.0783214 -2.82548117 2.05900621 -5.0546875 2.04296875 C-6.29605469 2.03136719 -7.53742188 2.01976562 -8.81640625 2.0078125 C-11.82954204 2.09068202 -14.44994089 2.39707426 -17.3671875 3.10546875 C-12.85968492 -1.83131979 -6.12786602 -2.31564574 0 0 Z " fill="#A24263" transform="translate(356.3671875,447.89453125)"/>
<path d="M0 0 C1.8871875 0.0309375 1.8871875 0.0309375 3.8125 0.0625 C3.4825 1.0525 3.1525 2.0425 2.8125 3.0625 C1.74 3.206875 0.6675 3.35125 -0.4375 3.5 C-3.11611978 3.90179297 -5.59139949 4.34633434 -8.1875 5.0625 C-9.52083333 5.39583333 -10.85416667 5.72916667 -12.1875 6.0625 C-8.18978325 1.84869045 -5.85577596 -0.09599633 0 0 Z " fill="#D05875" transform="translate(495.1875,320.9375)"/>
<path d="M0 0 C0.66 0.33 1.32 0.66 2 1 C3.99960012 1.039992 6.00047242 1.04346799 8 1 C7.2575 1.53625 6.515 2.0725 5.75 2.625 C2.85270875 4.91343409 2.85270875 4.91343409 0.875 8.1875 C-1 11 -1 11 -4 12 C-2.66666667 8 -1.33333333 4 0 0 Z " fill="#CE4F6D" transform="translate(201,284)"/>
<path d="M0 0 C2.61379562 2.50015234 3.91384756 3.89327252 4.203125 7.609375 C4.36143901 18.21641372 4.36143901 18.21641372 1 23 C0.34 23.33 -0.32 23.66 -1 24 C-1 23.01 -1 22.02 -1 21 C-0.34 21 0.32 21 1 21 C2.6994283 14.20228681 2.47441791 8.49534702 0 2 C0 1.34 0 0.68 0 0 Z " fill="#B9476C" transform="translate(362,452)"/>
<path d="M0 0 C2 1 2 1 3 3 C1.9171875 3.5878125 1.9171875 3.5878125 0.8125 4.1875 C-2.227326 6.14649898 -4.52127727 8.37963597 -7 11 C-7.99 10.67 -8.98 10.34 -10 10 C-8.90033225 8.70450101 -7.79508199 7.41373929 -6.6875 6.125 C-6.07261719 5.40570313 -5.45773437 4.68640625 -4.82421875 3.9453125 C-3 2 -3 2 0 0 Z " fill="#2F122F" transform="translate(323,436)"/>
<path d="M0 0 C0.66 0.33 1.32 0.66 2 1 C-0.37797003 3.62828266 -2.95329341 5.216562 -6 7 C-6.680625 7.515625 -7.36125 8.03125 -8.0625 8.5625 C-9.967822 9.976126 -11.85260963 11.00299733 -14 12 C-12.95125002 9.37812506 -12.35068687 8.20628639 -9.875 6.75 C-9.25625 6.5025 -8.6375 6.255 -8 6 C-8 5.34 -8 4.68 -8 4 C-6.71349294 3.30289269 -5.42059335 2.61757124 -4.125 1.9375 C-3.40570313 1.55464844 -2.68640625 1.17179688 -1.9453125 0.77734375 C-1.30335938 0.52082031 -0.66140625 0.26429688 0 0 Z " fill="#D64669" transform="translate(147,245)"/>
<path d="M0 0 C0.99 0.66 1.98 1.32 3 2 C2.16597656 2.03738281 1.33195313 2.07476562 0.47265625 2.11328125 C-6.5546669 2.52381216 -12.43907095 3.44234969 -19 6 C-13.82658206 0.47032873 -7.37518257 -1.10056019 0 0 Z " fill="#C76880" transform="translate(550,169)"/>
<path d="M0 0 C1.32 0.33 2.64 0.66 4 1 C3.01 2.485 3.01 2.485 2 4 C1.34 4 0.68 4 0 4 C0.12375 4.9075 0.2475 5.815 0.375 6.75 C0.25125 7.8225 0.1275 8.895 0 10 C-3 12.375 -3 12.375 -6 14 C-5.34 11.69 -4.68 9.38 -4 7 C-3.34 7 -2.68 7 -2 7 C-1.34 4.69 -0.68 2.38 0 0 Z " fill="#D44768" transform="translate(329,285)"/>
<path d="M0 0 C3.16115776 1.36983503 3.9927092 1.9890638 6 5 C6 5.99 6 6.98 6 8 C6.66 8.33 7.32 8.66 8 9 C9.33350067 13.44500224 10.29175731 17.3318831 10 22 C8.51750077 19.13995723 7.28299017 16.25503235 6.125 13.25 C4.32360994 8.68557556 2.25815675 4.35501659 0 0 Z " fill="#D15A79" transform="translate(587,164)"/>
<path d="M0 0 C11.65766007 -0.86140345 11.65766007 -0.86140345 16.25 2.5 C17.1575 3.325 18.065 4.15 19 5 C15.20980534 6.26339822 13.62477616 5.49719015 10 4 C9.67 3.34 9.34 2.68 9 2 C6.87423218 1.53348793 6.87423218 1.53348793 4.4375 1.375 C3.61121094 1.30023438 2.78492188 1.22546875 1.93359375 1.1484375 C1.29550781 1.09945312 0.65742187 1.05046875 0 1 C0 0.67 0 0.34 0 0 Z " fill="#C84D6D" transform="translate(545,171)"/>
<path d="M0 0 C0.66 0.33 1.32 0.66 2 1 C2.05418326 3.08304538 2.09287551 5.16649768 2.125 7.25 C2.14820313 8.41015625 2.17140625 9.5703125 2.1953125 10.765625 C2.0103949 13.82786046 1.60823023 15.44202751 0 18 C-0.66 18 -1.32 18 -2 18 C-1.34 12.06 -0.68 6.12 0 0 Z " fill="#CC4B6F" transform="translate(391,456)"/>
<path d="M0 0 C-0.33 0.99 -0.66 1.98 -1 3 C-1.680625 3.2475 -2.36125 3.495 -3.0625 3.75 C-7.43378136 5.61011973 -10.54496124 8.79358686 -14 12 C-14 11.01 -14 10.02 -14 9 C-12.5589875 7.72273892 -11.1082156 6.45266702 -9.5859375 5.2734375 C-7.82122539 3.92188572 -7.82122539 3.92188572 -5.875 1.6875 C-4 0 -4 0 0 0 Z " fill="#CF4C6F" transform="translate(422,208)"/>
<path d="M0 0 C-0.33 0.99 -0.66 1.98 -1 3 C-2.70646173 3.72196458 -4.41568547 4.43888285 -6.14453125 5.10546875 C-9.0119467 6.48786483 -10.90582323 8.65198362 -13 11 C-13.66 10.67 -14.32 10.34 -15 10 C-13.58829091 8.70291686 -12.17041804 7.41254022 -10.75 6.125 C-9.96109375 5.40570313 -9.1721875 4.68640625 -8.359375 3.9453125 C-5.69536409 1.74882669 -3.5241306 0 0 0 Z " fill="#30102F" transform="translate(461,459)"/>
<path d="M0 0 C8.91 0 17.82 0 27 0 C24 3 24 3 21.67163086 3.28051758 C20.77839111 3.23564209 19.88515137 3.1907666 18.96484375 3.14453125 C17.99095703 3.09876953 17.01707031 3.05300781 16.01367188 3.00585938 C14.99853516 2.94205078 13.98339844 2.87824219 12.9375 2.8125 C11.91849609 2.76802734 10.89949219 2.72355469 9.84960938 2.67773438 C2.27092634 2.27092634 2.27092634 2.27092634 0 0 Z " fill="#CE4465" transform="translate(141,319)"/>
<path d="M0 0 C0.79664063 0.34933594 1.59328125 0.69867188 2.4140625 1.05859375 C3.47367188 1.51363281 4.53328125 1.96867188 5.625 2.4375 C7.19121094 3.11619141 7.19121094 3.11619141 8.7890625 3.80859375 C11.88685251 4.95801705 14.73210054 5.57311223 18 6 C18 6.33 18 6.66 18 7 C8.58997722 7.3690205 8.58997722 7.3690205 4 5 C4 4.34 4 3.68 4 3 C2.68 2.67 1.36 2.34 0 2 C0 1.34 0 0.68 0 0 Z " fill="#C55571" transform="translate(520,238)"/>
<path d="M0 0 C0.33 0 0.66 0 1 0 C1.03738281 0.65226562 1.07476562 1.30453125 1.11328125 1.9765625 C1.51493762 7.31622957 2.16761609 11.3204092 5 16 C4.01 16 3.02 16 2 16 C-0.67401588 10.65196824 -1.41257648 6.98235897 -1 1 C-0.67 0.67 -0.34 0.34 0 0 Z " fill="#350F30" transform="translate(332,459)"/>
<path d="M0 0 C0.33 0 0.66 0 1 0 C1.66 4.95 2.32 9.9 3 15 C3.99 15.33 4.98 15.66 6 16 C6 17.65 6 19.3 6 21 C1.71292372 17.18125978 0.22089607 12.05112691 -0.1875 6.41015625 C-0.1875 4.27252362 -0.10167682 2.13521313 0 0 Z " fill="#D76984" transform="translate(128,263)"/>
<path d="M0 0 C0.33 0 0.66 0 1 0 C1.21432579 6.64409958 0.51233701 12.53205867 -1 19 C-1.99 19 -2.98 19 -4 19 C-3.79503906 18.21496094 -3.59007812 17.42992187 -3.37890625 16.62109375 C-1.96045756 11.08982255 -0.64503363 5.67629598 0 0 Z " fill="#CF5D76" transform="translate(400,234)"/>
<path d="M0 0 C0.66 0.33 1.32 0.66 2 1 C-4.93 7.435 -4.93 7.435 -12 14 C-12.66 13.67 -13.32 13.34 -14 13 C-12.23223041 11.20521865 -10.46097441 9.4141293 -8.6875 7.625 C-8.18798828 7.11710938 -7.68847656 6.60921875 -7.17382812 6.0859375 C-4.87457613 3.77145867 -2.72478775 1.81652517 0 0 Z " fill="#FEE8EE" transform="translate(253,225)"/>
<path d="M0 0 C0.33 0.99 0.66 1.98 1 3 C0.03542166 4.35917857 -0.96854629 5.69084721 -2 7 C-2.12375 7.680625 -2.2475 8.36125 -2.375 9.0625 C-3.32028309 11.99287759 -5.36070471 12.64651524 -8 14 C-7.37606349 10.23880524 -5.65226285 7.81039958 -3.4375 4.75 C-2.79683594 3.85796875 -2.15617188 2.9659375 -1.49609375 2.046875 C-0.75552734 1.03367188 -0.75552734 1.03367188 0 0 Z " fill="#CA5370" transform="translate(591,218)"/>
<path d="M0 0 C-3.75 3 -3.75 3 -6 3 C-6.99 6.465 -6.99 6.465 -8 10 C-8.33 10 -8.66 10 -9 10 C-9.36658354 3.52369077 -9.36658354 3.52369077 -7.6875 1.125 C-4.70481346 -0.86345769 -3.43228734 -1.14409578 0 0 Z " fill="#C94568" transform="translate(344,451)"/>
<path d="M0 0 C3 1 3 1 4.421875 3.6171875 C4.86015625 4.69226563 5.2984375 5.76734375 5.75 6.875 C6.19859375 7.94492187 6.6471875 9.01484375 7.109375 10.1171875 C8 13 8 13 7 16 C5.82845707 13.71070947 4.66261926 11.41881638 3.5 9.125 C3.16613281 8.47402344 2.83226562 7.82304687 2.48828125 7.15234375 C0 2.2265625 0 2.2265625 0 0 Z " fill="#D25A79" transform="translate(537,316)"/>
<path d="M0 0 C0.33 0.66 0.66 1.32 1 2 C-0.21258505 5.23356015 -1.01284458 6.00856305 -4 8 C-4.33 8.99 -4.66 9.98 -5 11 C-6.65 11.33 -8.3 11.66 -10 12 C-9.61328125 11.55269531 -9.2265625 11.10539062 -8.828125 10.64453125 C-5.81609925 7.1478974 -2.85678969 3.62592537 0 0 Z " fill="#C95774" transform="translate(196,296)"/>
<path d="M0 0 C0 0.33 0 0.66 0 1 C-0.89203125 1.12117188 -1.7840625 1.24234375 -2.703125 1.3671875 C-3.87359375 1.53476562 -5.0440625 1.70234375 -6.25 1.875 C-7.41015625 2.03742188 -8.5703125 2.19984375 -9.765625 2.3671875 C-12.58193313 2.91820431 -14.55217557 3.55796482 -17 5 C-17.66 4.34 -18.32 3.68 -19 3 C-13.10104429 -1.0449982 -6.92696672 -0.27748976 0 0 Z " fill="#A74463" transform="translate(241,478)"/>
<path d="M0 0 C1.32 0 2.64 0 4 0 C4 0.66 4 1.32 4 2 C4.556875 2.268125 5.11375 2.53625 5.6875 2.8125 C8.19712523 4.10122647 10.59334236 5.52926478 13 7 C12.67 8.32 12.34 9.64 12 11 C11.55269531 10.54109375 11.10539063 10.0821875 10.64453125 9.609375 C7.25029352 6.16447701 3.86423288 2.92744915 0 0 Z " fill="#D45F7C" transform="translate(522,303)"/>
<path d="M0 0 C0.33 0 0.66 0 1 0 C0.87952582 5.02705917 0.75412763 8.09872551 -2.5625 12.0625 C-3.366875 12.701875 -4.17125 13.34125 -5 14 C-5 12.68 -5 11.36 -5 10 C-4.34 10 -3.68 10 -3 10 C-3 9.01 -3 8.02 -3 7 C-2.34 7 -1.68 7 -1 7 C-1.020625 6.030625 -1.04125 5.06125 -1.0625 4.0625 C-1 1 -1 1 0 0 Z " fill="#D4486B" transform="translate(396,253)"/>
<path d="M0 0 C1.8871875 0.0309375 1.8871875 0.0309375 3.8125 0.0625 C2.47916667 0.72916667 1.14583333 1.39583333 -0.1875 2.0625 C-1.115625 2.619375 -1.115625 2.619375 -2.0625 3.1875 C-4.84117042 4.33165841 -7.21376695 4.19766968 -10.1875 4.0625 C-7.08842497 0.66827497 -4.52992189 -0.07426101 0 0 Z " fill="#D04565" transform="translate(235.1875,478.9375)"/>
<path d="M0 0 C0.33 0 0.66 0 1 0 C1.50546036 2.08201528 2.00416835 4.16567067 2.5 6.25 C2.7784375 7.41015625 3.056875 8.5703125 3.34375 9.765625 C4 13 4 13 4 17 C0.99988164 13.99988164 0.09568308 10.83292899 -0.125 6.60546875 C-0.125 4.39999233 -0.08814358 2.20358941 0 0 Z " fill="#DA748C" transform="translate(470,342)"/>
<path d="M0 0 C-3.465 2.97 -3.465 2.97 -7 6 C-7.33 5.01 -7.66 4.02 -8 3 C-6.14481495 -0.71037009 -3.79223618 -1.26407873 0 0 Z " fill="#D44566" transform="translate(533,386)"/>
<path d="M0 0 C3 3 3 3 3.1875 6.1875 C3.0946875 7.5796875 3.0946875 7.5796875 3 9 C3.66 9.33 4.32 9.66 5 10 C3.68 10 2.36 10 1 10 C0.67 6.7 0.34 3.4 0 0 Z " fill="#C64D70" transform="translate(211,458)"/>
<path d="M0 0 C1.793259 2.6898885 3.46745549 5.41291463 5.125 8.1875 C5.66382813 9.08855469 6.20265625 9.98960937 6.7578125 10.91796875 C7.16773438 11.60503906 7.57765625 12.29210937 8 13 C5 13 5 13 2.875 11 C0.47269108 7.15630572 0.3043659 4.48939708 0 0 Z " fill="#CB5976" transform="translate(379,327)"/>
<path d="M0 0 C1.1406356 3.42190681 0.83489425 4.26170231 -0.3125 7.5625 C-0.70888672 8.74005859 -0.70888672 8.74005859 -1.11328125 9.94140625 C-2 12 -2 12 -4 14 C-3.53328373 8.58609132 -2.75702189 4.79482068 0 0 Z " fill="#3A1232" transform="translate(308,504)"/>
<path d="M0 0 C2.475 0.99 2.475 0.99 5 2 C5 2.99 5 3.98 5 5 C3.35 5.66 1.7 6.32 0 7 C0 4.69 0 2.38 0 0 Z " fill="#C94868" transform="translate(318,486)"/>
<path d="M0 0 C5.21979128 -0.1799928 9.07262981 0.02905192 14 2 C14 2.33 14 2.66 14 3 C8.80790596 3.21192221 4.873261 2.5912689 0 1 C0 0.67 0 0.34 0 0 Z " fill="#DB6884" transform="translate(485,369)"/>
<path d="M0 0 C0.66 0 1.32 0 2 0 C2 1.32 2 2.64 2 4 C2.66 4 3.32 4 4 4 C4 4.66 4 5.32 4 6 C4.66 6 5.32 6 6 6 C5.67 7.32 5.34 8.64 5 10 C2.08772731 6.71195019 0.50298788 4.40114397 0 0 Z " fill="#D05874" transform="translate(403,316)"/>
<path d="M0 0 C1 3 1 3 -0.6875 6.625 C-1.69921875 8.4765625 -1.69921875 8.4765625 -3 10 C-4.32 10.33 -5.64 10.66 -7 11 C-4.69 7.37 -2.38 3.74 0 0 Z " fill="#CA5B79" transform="translate(324,293)"/>
<path d="M0 0 C4.46839215 -0.21278058 7.82262526 0.40861915 12 2 C12 2.66 12 3.32 12 4 C10.1858073 3.71905418 8.37364999 3.42493567 6.5625 3.125 C5.04849609 2.88136719 5.04849609 2.88136719 3.50390625 2.6328125 C2.67761719 2.42398438 1.85132813 2.21515625 1 2 C0.67 1.34 0.34 0.68 0 0 Z " fill="#D7617F" transform="translate(161,217)"/>
<path d="M0 0 C2.97 0.33 5.94 0.66 9 1 C8.67 1.99 8.34 2.98 8 4 C2.25 2.25 2.25 2.25 0 0 Z " fill="#C64563" transform="translate(496,322)"/>
<path d="M0 0 C0.66 0 1.32 0 2 0 C1.56802365 4.7517398 0.67230705 6.92000054 -3 10 C-3 8.68 -3 7.36 -3 6 C-2.34 5.67 -1.68 5.34 -1 5 C-0.34444881 2.47266765 -0.34444881 2.47266765 0 0 Z " fill="#D05773" transform="translate(175,275)"/>
<path d="M0 0 C3.11954738 0.33724836 4.6209965 0.6209965 6.875 2.875 C7.24625 3.57625 7.6175 4.2775 8 5 C7.67 5.99 7.34 6.98 7 8 C5.76302083 6.50260417 4.52604167 5.00520833 3.2890625 3.5078125 C2.24749008 2.28948839 1.13339903 1.13339903 0 0 Z " fill="#361332" transform="translate(245,480)"/>
<path d="M0 0 C2.46800047 1.15173355 4.04783565 2.04783565 6 4 C6 4.99 6 5.98 6 7 C5.34 7 4.68 7 4 7 C0 2.52941176 0 2.52941176 0 0 Z " fill="#CA4D6C" transform="translate(385,340)"/>
<path d="M0 0 C2.4375 0.8125 2.4375 0.8125 5 2 C5.33 2.99 5.66 3.98 6 5 C4.68 5.33 3.36 5.66 2 6 C2.33 5.01 2.66 4.02 3 3 C2.34 3 1.68 3 1 3 C0.67 2.01 0.34 1.02 0 0 Z " fill="#CB4B69" transform="translate(462,386)"/>
</svg>
